# Blender v3.2.2 OBJ File: 'steve.blend'
# www.blender.org
mtllib steve_000041.mtl
o Cube_Cube.001
v -1.492520 0.878934 -1.862894
v -1.492520 0.787043 -3.187202
v -1.524326 -0.419362 -1.772809
v -1.524326 -0.511253 -3.097116
v -0.174067 0.846789 -1.860664
v -0.174067 0.754898 -3.184972
v -0.205873 -0.451507 -1.770578
v -0.205873 -0.543398 -3.094886
v -1.526373 0.727520 0.173778
v -1.526373 0.589078 -1.821423
v -1.542429 0.072110 0.219256
v -1.542429 -0.066333 -1.775946
v -0.182825 0.694763 0.176052
v -0.182825 0.556321 -1.819151
v -0.198881 0.039353 0.221529
v -0.198881 -0.099089 -1.773673
v -1.526373 0.580589 0.384310
v -1.526373 0.589078 -1.821423
v -1.542430 0.027731 0.029375
v -1.542429 -0.066333 -1.775946
v -0.182825 0.271246 -0.013552
v -0.182825 0.612305 -1.620023
v -0.198881 -0.081519 0.540693
v -0.198881 0.045171 -1.951669
v -0.143882 -0.902712 -0.200945
v -0.143882 -0.368984 0.094687
v -0.143882 0.057448 -1.934397
v -0.143882 0.591176 -1.638764
v 0.466253 -0.902712 -0.200945
v 0.466252 -0.368984 0.094687
v 0.466253 0.057448 -1.934397
v 0.466252 0.591176 -1.638764
v -1.553817 0.546545 -1.851128
v -1.553817 -0.103810 -1.790736
v -1.553817 0.729372 0.117734
v -1.553817 0.079017 0.178125
v -2.206969 0.546545 -1.851128
v -2.206970 -0.103810 -1.790736
v -2.206970 0.729372 0.117734
v -2.206970 0.079017 0.178125
v -1.496297 -0.926827 1.748715
v -1.496297 -0.475161 2.024032
v -1.496297 0.079897 0.097145
v -1.496297 0.531563 0.372460
v -0.906531 -0.926827 1.748715
v -0.906531 -0.475161 2.024032
v -0.906531 0.079897 0.097145
v -0.906531 0.531563 0.372460
v -0.816199 1.687239 1.444867
v -0.816199 1.942156 1.022951
v -0.816199 0.027863 0.442291
v -0.816199 0.282780 0.020374
v -0.188133 1.687239 1.444867
v -0.188133 1.942156 1.022951
v -0.188133 0.027863 0.442291
v -0.188133 0.282780 0.020374
vt 0.375000 0.000000
vt 0.625000 0.000000
vt 0.625000 0.250000
vt 0.375000 0.250000
vt 0.625000 0.500000
vt 0.375000 0.500000
vt 0.625000 0.750000
vt 0.375000 0.750000
vt 0.262569 0.741134
vt 0.262180 0.875768
vt 0.132964 0.875092
vt 0.133353 0.740458
vt 0.125000 0.500000
vt 0.125000 0.750000
vt 0.098654 0.762004
vt 0.215173 0.762004
vt 0.215173 0.942846
vt 0.098654 0.942846
vt 0.375000 0.000000
vt 0.625000 0.000000
vt 0.625000 0.250000
vt 0.375000 0.250000
vt 0.625000 0.500000
vt 0.375000 0.500000
vt 0.625000 0.750000
vt 0.375000 0.750000
vt 0.452463 0.464978
vt 0.452517 0.673909
vt 0.323890 0.674015
vt 0.323837 0.465084
vt 0.125000 0.500000
vt 0.125000 0.750000
vt 0.875000 0.500000
vt 0.875000 0.750000
vt 0.375000 0.000000
vt 0.625000 0.000000
vt 0.625000 0.250000
vt 0.375000 0.250000
vt 0.625000 0.500000
vt 0.375000 0.500000
vt 0.625000 0.750000
vt 0.375000 0.750000
vt 0.625000 1.000000
vt 0.375000 1.000000
vt 0.125000 0.500000
vt 0.125000 0.750000
vt 0.280548 0.722983
vt 0.219452 0.722983
vt 0.219452 0.402017
vt 0.280548 0.402017
vt 0.375000 0.000000
vt 0.625000 0.000000
vt 0.625000 0.250000
vt 0.375000 0.250000
vt 0.625000 0.500000
vt 0.375000 0.500000
vt 0.625000 0.750000
vt 0.375000 0.750000
vt 0.375000 0.622247
vt 0.440527 0.622247
vt 0.440527 0.724108
vt 0.375000 0.724108
vt 0.033909 0.397322
vt 0.087021 0.397227
vt 0.087185 0.722917
vt 0.034072 0.723012
vt 0.875000 0.500000
vt 0.875000 0.750000
vt 0.375000 0.000000
vt 0.625000 0.000000
vt 0.625000 0.250000
vt 0.375000 0.250000
vt 0.625000 0.500000
vt 0.375000 0.500000
vt 0.625000 0.750000
vt 0.375000 0.750000
vt 0.625000 1.000000
vt 0.375000 1.000000
vt 0.125000 0.500000
vt 0.125000 0.750000
vt 0.657165 0.430876
vt 0.595491 0.430534
vt 0.595602 0.072664
vt 0.657276 0.073006
vt 0.375000 0.000000
vt 0.625000 0.000000
vt 0.625000 0.250000
vt 0.375000 0.250000
vt 0.625000 0.500000
vt 0.375000 0.500000
vt 0.625000 0.750000
vt 0.375000 0.750000
vt 0.625000 1.000000
vt 0.375000 1.000000
vt 0.125000 0.500000
vt 0.125000 0.750000
vt 0.718539 0.426085
vt 0.649746 0.424211
vt 0.653045 0.068486
vt 0.721838 0.070360
vn -0.9997 0.0244 -0.0017
vn -0.0244 -0.9973 0.0692
vn 0.9997 -0.0244 0.0017
vn 0.0244 0.9973 -0.0692
vn -0.0000 0.0692 0.9976
vn -0.0000 -0.0692 -0.9976
vn -1.0000 0.0000 0.0000
vn 0.0000 0.4845 -0.8748
vn 1.0000 0.0000 0.0000
vn 0.0000 -0.4845 0.8748
vn 0.0000 -0.8748 -0.4845
vn -0.0000 0.8748 0.4845
vn 0.0000 -0.0925 -0.9957
vn 0.0000 0.0925 0.9957
vn 0.0000 -0.9957 0.0925
vn 0.0000 0.9957 -0.0925
vn -0.0000 0.5205 -0.8539
vn 0.0000 -0.5205 0.8539
vn 0.0000 -0.8539 -0.5205
vn 0.0000 0.8539 0.5205
vn 0.0000 -0.8559 -0.5171
vn 0.0000 0.8559 0.5171
vn 0.0000 -0.5171 0.8559
vn 0.0000 0.5171 -0.8559
g Cube_Cube.001_Material.001
usemtl Material.001
s off
f 1/1/1 2/2/1 4/3/1 3/4/1
f 3/4/2 4/3/2 8/5/2 7/6/2
f 7/6/3 8/5/3 6/7/3 5/8/3
f 5/9/4 6/10/4 2/11/4 1/12/4
f 3/13/5 7/6/5 5/8/5 1/14/5
f 8/15/6 4/16/6 2/17/6 6/18/6
f 9/19/1 10/20/1 12/21/1 11/22/1
f 11/22/2 12/21/2 16/23/2 15/24/2
f 15/24/3 16/23/3 14/25/3 13/26/3
f 13/27/4 14/28/4 10/29/4 9/30/4
f 11/31/5 15/24/5 13/26/5 9/32/5
f 16/23/6 12/33/6 10/34/6 14/25/6
f 25/35/7 26/36/7 28/37/7 27/38/7
f 27/38/8 28/37/8 32/39/8 31/40/8
f 31/40/9 32/39/9 30/41/9 29/42/9
f 29/42/10 30/41/10 26/43/10 25/44/10
f 27/45/11 31/40/11 29/42/11 25/46/11
f 32/47/12 28/48/12 26/49/12 30/50/12
f 33/51/7 34/52/7 36/53/7 35/54/7
f 35/54/13 36/53/13 40/55/13 39/56/13
f 39/56/9 40/55/9 38/57/9 37/58/9
f 37/59/14 38/60/14 34/61/14 33/62/14
f 35/63/15 39/64/15 37/65/15 33/66/15
f 40/55/16 36/67/16 34/68/16 38/57/16
f 41/69/7 42/70/7 44/71/7 43/72/7
f 43/72/17 44/71/17 48/73/17 47/74/17
f 47/74/9 48/73/9 46/75/9 45/76/9
f 45/76/18 46/75/18 42/77/18 41/78/18
f 43/79/19 47/74/19 45/76/19 41/80/19
f 48/81/20 44/82/20 42/83/20 46/84/20
f 49/85/7 50/86/7 52/87/7 51/88/7
f 51/88/21 52/87/21 56/89/21 55/90/21
f 55/90/9 56/89/9 54/91/9 53/92/9
f 53/92/22 54/91/22 50/93/22 49/94/22
f 51/95/23 55/90/23 53/92/23 49/96/23
f 56/97/24 52/98/24 50/99/24 54/100/24
l 9 17
l 10 18
l 11 19
l 12 20
l 13 21
l 14 22
l 15 23
l 16 24
o Cube.001_Cube.002
v 2.388731 0.896314 -1.804225
v 2.388731 0.927264 -3.131357
v 2.356925 -0.404750 -1.834568
v 2.356925 -0.373800 -3.161699
v 3.707184 0.864100 -1.804976
v 3.707184 0.895051 -3.132108
v 3.675379 -0.436963 -1.835319
v 3.675379 -0.406013 -3.162450
v 2.354878 0.557235 0.209724
v 2.354878 0.603865 -1.789732
v 2.338822 -0.099572 0.194406
v 2.338822 -0.052943 -1.805050
v 3.698426 0.524408 0.208958
v 3.698426 0.571038 -1.790498
v 3.682370 -0.132399 0.193641
v 3.682370 -0.085769 -1.805816
v 2.354878 0.557235 0.209724
v 2.354878 0.603865 -1.789732
v 2.338822 -0.099572 0.194406
v 2.338822 -0.052943 -1.805050
v 3.698426 0.524408 0.208958
v 3.698426 0.571038 -1.790498
v 3.682370 -0.132399 0.193641
v 3.682370 -0.085769 -1.805816
v 3.737370 -0.066661 0.184951
v 3.737370 0.543474 0.184951
v 3.737370 -0.066661 -1.796654
v 3.737370 0.543474 -1.796654
v 4.347504 -0.066661 0.184951
v 4.347504 0.543474 0.184951
v 4.347504 -0.066661 -1.796654
v 4.347504 0.543474 -1.796654
v 2.327435 0.564261 -1.823242
v 2.327434 -0.088892 -1.823242
v 2.327435 0.564261 0.154090
v 2.327434 -0.088892 0.154090
v 1.674282 0.564261 -1.823242
v 1.674281 -0.088892 -1.823242
v 1.674281 0.564261 0.154090
v 1.674281 -0.088892 0.154090
v 2.384954 -0.019756 2.159335
v 2.384954 0.509206 2.159336
v 2.384954 -0.019756 0.225122
v 2.384954 0.509206 0.225122
v 2.974720 -0.019756 2.159335
v 2.974720 0.509206 2.159336
v 2.974720 -0.019756 0.225122
v 2.974720 0.509206 0.225122
v 3.065052 0.008389 2.175108
v 3.065052 0.501336 2.175108
v 3.065052 0.008389 0.236375
v 3.065052 0.501336 0.236375
v 3.693119 0.008389 2.175108
v 3.693118 0.501336 2.175108
v 3.693119 0.008389 0.236375
v 3.693118 0.501336 0.236375
vt 0.375000 0.000000
vt 0.625000 0.000000
vt 0.625000 0.250000
vt 0.375000 0.250000
vt 0.625000 0.500000
vt 0.375000 0.500000
vt 0.625000 0.750000
vt 0.375000 0.750000
vt 0.720177 0.728620
vt 0.719789 0.945165
vt 0.597095 0.944489
vt 0.597483 0.727943
vt 0.125000 0.500000
vt 0.125000 0.750000
vt 0.098654 0.762004
vt 0.215173 0.762004
vt 0.215173 0.942846
vt 0.098654 0.942846
vt 0.375000 0.000000
vt 0.625000 0.000000
vt 0.625000 0.250000
vt 0.375000 0.250000
vt 0.625000 0.500000
vt 0.375000 0.500000
vt 0.625000 0.750000
vt 0.375000 0.750000
vt 0.721631 0.394826
vt 0.721685 0.729893
vt 0.593058 0.729999
vt 0.593005 0.394932
vt 0.125000 0.500000
vt 0.125000 0.750000
vt 0.875000 0.500000
vt 0.875000 0.750000
vt 0.375000 0.000000
vt 0.625000 0.000000
vt 0.625000 0.250000
vt 0.375000 0.250000
vt 0.625000 0.500000
vt 0.375000 0.500000
vt 0.625000 0.750000
vt 0.375000 0.750000
vt 0.625000 1.000000
vt 0.375000 1.000000
vt 0.125000 0.500000
vt 0.125000 0.750000
vt 0.280548 0.722983
vt 0.219452 0.722983
vt 0.219452 0.402017
vt 0.280548 0.402017
vt 0.375000 0.000000
vt 0.625000 0.000000
vt 0.625000 0.250000
vt 0.375000 0.250000
vt 0.625000 0.500000
vt 0.375000 0.500000
vt 0.625000 0.750000
vt 0.375000 0.750000
vt 0.375000 0.622247
vt 0.440527 0.622247
vt 0.440527 0.724108
vt 0.375000 0.724108
vt 0.033909 0.397322
vt 0.087021 0.397227
vt 0.087185 0.722917
vt 0.034072 0.723012
vt 0.875000 0.500000
vt 0.875000 0.750000
vt 0.375000 0.000000
vt 0.625000 0.000000
vt 0.625000 0.250000
vt 0.375000 0.250000
vt 0.625000 0.500000
vt 0.375000 0.500000
vt 0.625000 0.750000
vt 0.375000 0.750000
vt 0.625000 1.000000
vt 0.375000 1.000000
vt 0.125000 0.500000
vt 0.125000 0.750000
vt 0.657165 0.430876
vt 0.595491 0.430534
vt 0.595602 0.072664
vt 0.657276 0.073006
vt 0.375000 0.000000
vt 0.625000 0.000000
vt 0.625000 0.250000
vt 0.375000 0.250000
vt 0.625000 0.500000
vt 0.375000 0.500000
vt 0.625000 0.750000
vt 0.375000 0.750000
vt 0.625000 1.000000
vt 0.375000 1.000000
vt 0.125000 0.500000
vt 0.125000 0.750000
vt 0.718539 0.426085
vt 0.649746 0.424211
vt 0.653045 0.068486
vt 0.721838 0.070360
vn -0.9997 0.0244 0.0006
vn -0.0244 -0.9994 -0.0233
vn 0.9997 -0.0244 -0.0006
vn 0.0244 0.9994 0.0233
vn -0.0000 -0.0233 0.9997
vn 0.0000 0.0233 -0.9997
vn -1.0000 0.0000 0.0000
vn 0.0000 0.0000 -1.0000
vn 1.0000 0.0000 0.0000
vn 0.0000 -0.0000 1.0000
vn 0.0000 -1.0000 0.0000
vn 0.0000 1.0000 -0.0000
g Cube.001_Cube.002_Material.002
usemtl Material.002
s off
f 57/101/25 58/102/25 60/103/25 59/104/25
f 59/104/26 60/103/26 64/105/26 63/106/26
f 63/106/27 64/105/27 62/107/27 61/108/27
f 61/109/28 62/110/28 58/111/28 57/112/28
f 59/113/29 63/106/29 61/108/29 57/114/29
f 64/115/30 60/116/30 58/117/30 62/118/30
f 65/119/25 66/120/25 68/121/25 67/122/25
f 67/122/26 68/121/26 72/123/26 71/124/26
f 71/124/27 72/123/27 70/125/27 69/126/27
f 69/127/28 70/128/28 66/129/28 65/130/28
f 67/131/29 71/124/29 69/126/29 65/132/29
f 72/123/30 68/133/30 66/134/30 70/125/30
f 81/135/31 82/136/31 84/137/31 83/138/31
f 83/138/32 84/137/32 88/139/32 87/140/32
f 87/140/33 88/139/33 86/141/33 85/142/33
f 85/142/34 86/141/34 82/143/34 81/144/34
f 83/145/35 87/140/35 85/142/35 81/146/35
f 88/147/36 84/148/36 82/149/36 86/150/36
f 89/151/31 90/152/31 92/153/31 91/154/31
f 91/154/32 92/153/32 96/155/32 95/156/32
f 95/156/33 96/155/33 94/157/33 93/158/33
f 93/159/34 94/160/34 90/161/34 89/162/34
f 91/163/35 95/164/35 93/165/35 89/166/35
f 96/155/36 92/167/36 90/168/36 94/157/36
f 97/169/31 98/170/31 100/171/31 99/172/31
f 99/172/32 100/171/32 104/173/32 103/174/32
f 103/174/33 104/173/33 102/175/33 101/176/33
f 101/176/34 102/175/34 98/177/34 97/178/34
f 99/179/35 103/174/35 101/176/35 97/180/35
f 104/181/36 100/182/36 98/183/36 102/184/36
f 105/185/31 106/186/31 108/187/31 107/188/31
f 107/188/32 108/187/32 112/189/32 111/190/32
f 111/190/33 112/189/33 110/191/33 109/192/33
f 109/192/34 110/191/34 106/193/34 105/194/34
f 107/195/35 111/190/35 109/192/35 105/196/35
f 112/197/36 108/198/36 106/199/36 110/200/36
l 65 73
l 66 74
l 67 75
l 68 76
l 69 77
l 70 78
l 71 79
l 72 80
