# Blender 3.2.2
# www.blender.org
mtllib steve.mtl
o Cube
v -1.492520 0.896314 -1.804225
v -1.492520 0.927264 -3.131357
v -1.524326 -0.404750 -1.834568
v -1.524326 -0.373800 -3.161699
v -0.174067 0.864100 -1.804976
v -0.174067 0.895051 -3.132108
v -0.205873 -0.436963 -1.835319
v -0.205873 -0.406013 -3.162450
v -1.526373 0.557235 0.209724
v -1.526373 0.603865 -1.789732
v -1.542430 -0.099572 0.194406
v -1.542430 -0.052943 -1.805050
v -0.182825 0.524408 0.208958
v -0.182825 0.571038 -1.790498
v -0.198881 -0.132399 0.193641
v -0.198881 -0.085769 -1.805816
v -1.526373 0.557235 0.209724
v -1.526373 0.603865 -1.789732
v -1.542430 -0.099572 0.194406
v -1.542430 -0.052943 -1.805050
v -0.182825 0.524408 0.208958
v -0.182825 0.571038 -1.790498
v -0.198881 -0.132399 0.193641
v -0.198881 -0.085769 -1.805816
v -0.143882 -0.066661 0.184951
v -0.143882 0.543474 0.184951
v -0.143882 -0.066661 -1.796654
v -0.143882 0.543474 -1.796654
v 0.466253 -0.066661 0.184951
v 0.466253 0.543474 0.184951
v 0.466253 -0.066661 -1.796654
v 0.466253 0.543474 -1.796654
v -1.553817 0.564261 -1.823242
v -1.553817 -0.088892 -1.823242
v -1.553817 0.564261 0.154090
v -1.553817 -0.088892 0.154090
v -2.206970 0.564261 -1.823242
v -2.206970 -0.088892 -1.823242
v -2.206970 0.564261 0.154090
v -2.206970 -0.088892 0.154090
v -1.496297 -0.019756 2.159335
v -1.496297 0.509206 2.159336
v -1.496297 -0.019756 0.225122
v -1.496297 0.509206 0.225122
v -0.906531 -0.019756 2.159335
v -0.906531 0.509206 2.159336
v -0.906531 -0.019756 0.225122
v -0.906531 0.509206 0.225122
v -0.816199 0.008389 2.175108
v -0.816199 0.501336 2.175108
v -0.816199 0.008389 0.236375
v -0.816199 0.501336 0.236375
v -0.188133 0.008389 2.175108
v -0.188133 0.501336 2.175108
v -0.188133 0.008389 0.236375
v -0.188133 0.501336 0.236375
vn -0.9997 0.0244 0.0006
vn -0.0244 -0.9994 -0.0233
vn 0.9997 -0.0244 -0.0006
vn 0.0244 0.9994 0.0233
vn -0.0000 -0.0233 0.9997
vn -0.0000 0.0233 -0.9997
vn -1.0000 -0.0000 -0.0000
vn -0.0000 -0.0000 -1.0000
vn 1.0000 -0.0000 -0.0000
vn -0.0000 -0.0000 1.0000
vn -0.0000 -1.0000 -0.0000
vn -0.0000 1.0000 -0.0000
vt 0.375000 0.000000
vt 0.133353 0.740458
vt 0.125000 0.750000
vt 0.625000 0.000000
vt 0.132964 0.875092
vt 0.215173 0.942846
vt 0.375000 0.250000
vt 0.125000 0.500000
vt 0.625000 0.250000
vt 0.215173 0.762004
vt 0.262569 0.741134
vt 0.375000 0.750000
vt 0.625000 0.750000
vt 0.262180 0.875768
vt 0.098654 0.942846
vt 0.375000 0.500000
vt 0.625000 0.500000
vt 0.098654 0.762004
vt 0.375000 0.000000
vt 0.323837 0.465084
vt 0.125000 0.750000
vt 0.625000 0.000000
vt 0.323890 0.674015
vt 0.875000 0.750000
vt 0.375000 0.250000
vt 0.125000 0.500000
vt 0.625000 0.250000
vt 0.875000 0.500000
vt 0.452463 0.464978
vt 0.375000 0.750000
vt 0.452517 0.673909
vt 0.625000 0.750000
vt 0.375000 0.500000
vt 0.625000 0.500000
vt 0.375000 0.000000
vt 0.375000 1.000000
vt 0.125000 0.750000
vt 0.625000 0.000000
vt 0.625000 1.000000
vt 0.219452 0.402017
vt 0.375000 0.250000
vt 0.125000 0.500000
vt 0.625000 0.250000
vt 0.219452 0.722983
vt 0.375000 0.750000
vt 0.625000 0.750000
vt 0.280548 0.402017
vt 0.375000 0.500000
vt 0.625000 0.500000
vt 0.280548 0.722983
vt 0.375000 0.000000
vt 0.375000 0.724108
vt 0.034072 0.723012
vt 0.625000 0.000000
vt 0.440527 0.724108
vt 0.875000 0.750000
vt 0.375000 0.250000
vt 0.033909 0.397322
vt 0.625000 0.250000
vt 0.875000 0.500000
vt 0.375000 0.750000
vt 0.375000 0.622247
vt 0.087185 0.722917
vt 0.440527 0.622247
vt 0.625000 0.750000
vt 0.375000 0.500000
vt 0.087021 0.397227
vt 0.625000 0.500000
vt 0.375000 0.000000
vt 0.375000 1.000000
vt 0.125000 0.750000
vt 0.625000 0.000000
vt 0.625000 1.000000
vt 0.595602 0.072664
vt 0.375000 0.250000
vt 0.125000 0.500000
vt 0.625000 0.250000
vt 0.595491 0.430534
vt 0.375000 0.750000
vt 0.625000 0.750000
vt 0.657276 0.073006
vt 0.375000 0.500000
vt 0.625000 0.500000
vt 0.657165 0.430876
vt 0.375000 0.000000
vt 0.375000 1.000000
vt 0.125000 0.750000
vt 0.625000 0.000000
vt 0.625000 1.000000
vt 0.653045 0.068486
vt 0.375000 0.250000
vt 0.125000 0.500000
vt 0.625000 0.250000
vt 0.649746 0.424211
vt 0.375000 0.750000
vt 0.625000 0.750000
vt 0.721838 0.070360
vt 0.375000 0.500000
vt 0.625000 0.500000
vt 0.718539 0.426085
s 0
usemtl Material.001
f 1/1/1 2/4/1 4/9/1 3/7/1
f 3/7/2 4/9/2 8/17/2 7/16/2
f 7/16/3 8/17/3 6/13/3 5/12/3
f 5/11/4 6/14/4 2/5/4 1/2/4
f 3/8/5 7/16/5 5/12/5 1/3/5
f 8/18/6 4/10/6 2/6/6 6/15/6
f 9/19/1 10/22/1 12/27/1 11/25/1
f 11/25/2 12/27/2 16/34/2 15/33/2
f 15/33/3 16/34/3 14/32/3 13/30/3
f 13/29/4 14/31/4 10/23/4 9/20/4
f 11/26/5 15/33/5 13/30/5 9/21/5
f 16/34/6 12/28/6 10/24/6 14/32/6
f 25/35/7 26/38/7 28/43/7 27/41/7
f 27/41/8 28/43/8 32/49/8 31/48/8
f 31/48/9 32/49/9 30/46/9 29/45/9
f 29/45/10 30/46/10 26/39/10 25/36/10
f 27/42/11 31/48/11 29/45/11 25/37/11
f 32/50/12 28/44/12 26/40/12 30/47/12
f 33/51/7 34/54/7 36/59/7 35/57/7
f 35/57/8 36/59/8 40/68/8 39/66/8
f 39/66/9 40/68/9 38/65/9 37/61/9
f 37/62/10 38/64/10 34/55/10 33/52/10
f 35/58/11 39/67/11 37/63/11 33/53/11
f 40/68/12 36/60/12 34/56/12 38/65/12
f 41/69/7 42/72/7 44/77/7 43/75/7
f 43/75/8 44/77/8 48/83/8 47/82/8
f 47/82/9 48/83/9 46/80/9 45/79/9
f 45/79/10 46/80/10 42/73/10 41/70/10
f 43/76/11 47/82/11 45/79/11 41/71/11
f 48/84/12 44/78/12 42/74/12 46/81/12
f 49/85/7 50/88/7 52/93/7 51/91/7
f 51/91/8 52/93/8 56/99/8 55/98/8
f 55/98/9 56/99/9 54/96/9 53/95/9
f 53/95/10 54/96/10 50/89/10 49/86/10
f 51/92/11 55/98/11 53/95/11 49/87/11
f 56/100/12 52/94/12 50/90/12 54/97/12
l 9 17
l 10 18
l 11 19
l 12 20
l 13 21
l 14 22
l 15 23
l 16 24
o Cube.001
v 2.388731 0.896314 -1.804225
v 2.388731 0.927264 -3.131357
v 2.356925 -0.404750 -1.834568
v 2.356925 -0.373800 -3.161699
v 3.707184 0.864100 -1.804976
v 3.707184 0.895051 -3.132108
v 3.675379 -0.436963 -1.835319
v 3.675379 -0.406013 -3.162450
v 2.354878 0.557235 0.209724
v 2.354878 0.603865 -1.789732
v 2.338822 -0.099572 0.194406
v 2.338822 -0.052943 -1.805050
v 3.698426 0.524408 0.208958
v 3.698426 0.571038 -1.790498
v 3.682370 -0.132399 0.193641
v 3.682370 -0.085769 -1.805816
v 2.354878 0.557235 0.209724
v 2.354878 0.603865 -1.789732
v 2.338822 -0.099572 0.194406
v 2.338822 -0.052943 -1.805050
v 3.698426 0.524408 0.208958
v 3.698426 0.571038 -1.790498
v 3.682370 -0.132399 0.193641
v 3.682370 -0.085769 -1.805816
v 3.737370 -0.066661 0.184951
v 3.737370 0.543474 0.184951
v 3.737370 -0.066661 -1.796654
v 3.737370 0.543474 -1.796654
v 4.347504 -0.066661 0.184951
v 4.347504 0.543474 0.184951
v 4.347504 -0.066661 -1.796654
v 4.347504 0.543474 -1.796654
v 2.327435 0.564261 -1.823242
v 2.327434 -0.088892 -1.823242
v 2.327435 0.564261 0.154090
v 2.327434 -0.088892 0.154090
v 1.674282 0.564261 -1.823242
v 1.674281 -0.088892 -1.823242
v 1.674281 0.564261 0.154090
v 1.674281 -0.088892 0.154090
v 2.384954 -0.019756 2.159335
v 2.384954 0.509206 2.159336
v 2.384954 -0.019756 0.225122
v 2.384954 0.509206 0.225122
v 2.974720 -0.019756 2.159335
v 2.974720 0.509206 2.159336
v 2.974720 -0.019756 0.225122
v 2.974720 0.509206 0.225122
v 3.065052 0.008389 2.175108
v 3.065052 0.501336 2.175108
v 3.065052 0.008389 0.236375
v 3.065052 0.501336 0.236375
v 3.693119 0.008389 2.175108
v 3.693118 0.501336 2.175108
v 3.693119 0.008389 0.236375
v 3.693118 0.501336 0.236375
vn -0.9997 0.0244 0.0006
vn -0.0244 -0.9994 -0.0233
vn 0.9997 -0.0244 -0.0006
vn 0.0244 0.9994 0.0233
vn -0.0000 -0.0233 0.9997
vn -0.0000 0.0233 -0.9997
vn -1.0000 -0.0000 -0.0000
vn -0.0000 -0.0000 -1.0000
vn 1.0000 -0.0000 -0.0000
vn -0.0000 -0.0000 1.0000
vn -0.0000 -1.0000 -0.0000
vn -0.0000 1.0000 -0.0000
vt 0.375000 0.000000
vt 0.597483 0.727943
vt 0.125000 0.750000
vt 0.625000 0.000000
vt 0.597095 0.944489
vt 0.215173 0.942846
vt 0.375000 0.250000
vt 0.125000 0.500000
vt 0.625000 0.250000
vt 0.215173 0.762004
vt 0.720177 0.728620
vt 0.375000 0.750000
vt 0.625000 0.750000
vt 0.719789 0.945165
vt 0.098654 0.942846
vt 0.375000 0.500000
vt 0.625000 0.500000
vt 0.098654 0.762004
vt 0.375000 0.000000
vt 0.593005 0.394932
vt 0.125000 0.750000
vt 0.625000 0.000000
vt 0.593058 0.729999
vt 0.875000 0.750000
vt 0.375000 0.250000
vt 0.125000 0.500000
vt 0.625000 0.250000
vt 0.875000 0.500000
vt 0.721631 0.394826
vt 0.375000 0.750000
vt 0.721685 0.729893
vt 0.625000 0.750000
vt 0.375000 0.500000
vt 0.625000 0.500000
vt 0.375000 0.000000
vt 0.375000 1.000000
vt 0.125000 0.750000
vt 0.625000 0.000000
vt 0.625000 1.000000
vt 0.219452 0.402017
vt 0.375000 0.250000
vt 0.125000 0.500000
vt 0.625000 0.250000
vt 0.219452 0.722983
vt 0.375000 0.750000
vt 0.625000 0.750000
vt 0.280548 0.402017
vt 0.375000 0.500000
vt 0.625000 0.500000
vt 0.280548 0.722983
vt 0.375000 0.000000
vt 0.375000 0.724108
vt 0.034072 0.723012
vt 0.625000 0.000000
vt 0.440527 0.724108
vt 0.875000 0.750000
vt 0.375000 0.250000
vt 0.033909 0.397322
vt 0.625000 0.250000
vt 0.875000 0.500000
vt 0.375000 0.750000
vt 0.375000 0.622247
vt 0.087185 0.722917
vt 0.440527 0.622247
vt 0.625000 0.750000
vt 0.375000 0.500000
vt 0.087021 0.397227
vt 0.625000 0.500000
vt 0.375000 0.000000
vt 0.375000 1.000000
vt 0.125000 0.750000
vt 0.625000 0.000000
vt 0.625000 1.000000
vt 0.595602 0.072664
vt 0.375000 0.250000
vt 0.125000 0.500000
vt 0.625000 0.250000
vt 0.595491 0.430534
vt 0.375000 0.750000
vt 0.625000 0.750000
vt 0.657276 0.073006
vt 0.375000 0.500000
vt 0.625000 0.500000
vt 0.657165 0.430876
vt 0.375000 0.000000
vt 0.375000 1.000000
vt 0.125000 0.750000
vt 0.625000 0.000000
vt 0.625000 1.000000
vt 0.653045 0.068486
vt 0.375000 0.250000
vt 0.125000 0.500000
vt 0.625000 0.250000
vt 0.649746 0.424211
vt 0.375000 0.750000
vt 0.625000 0.750000
vt 0.721838 0.070360
vt 0.375000 0.500000
vt 0.625000 0.500000
vt 0.718539 0.426085
s 0
usemtl Material.002
f 57/101/13 58/104/13 60/109/13 59/107/13
f 59/107/14 60/109/14 64/117/14 63/116/14
f 63/116/15 64/117/15 62/113/15 61/112/15
f 61/111/16 62/114/16 58/105/16 57/102/16
f 59/108/17 63/116/17 61/112/17 57/103/17
f 64/118/18 60/110/18 58/106/18 62/115/18
f 65/119/13 66/122/13 68/127/13 67/125/13
f 67/125/14 68/127/14 72/134/14 71/133/14
f 71/133/15 72/134/15 70/132/15 69/130/15
f 69/129/16 70/131/16 66/123/16 65/120/16
f 67/126/17 71/133/17 69/130/17 65/121/17
f 72/134/18 68/128/18 66/124/18 70/132/18
f 81/135/19 82/138/19 84/143/19 83/141/19
f 83/141/20 84/143/20 88/149/20 87/148/20
f 87/148/21 88/149/21 86/146/21 85/145/21
f 85/145/22 86/146/22 82/139/22 81/136/22
f 83/142/23 87/148/23 85/145/23 81/137/23
f 88/150/24 84/144/24 82/140/24 86/147/24
f 89/151/19 90/154/19 92/159/19 91/157/19
f 91/157/20 92/159/20 96/168/20 95/166/20
f 95/166/21 96/168/21 94/165/21 93/161/21
f 93/162/22 94/164/22 90/155/22 89/152/22
f 91/158/23 95/167/23 93/163/23 89/153/23
f 96/168/24 92/160/24 90/156/24 94/165/24
f 97/169/19 98/172/19 100/177/19 99/175/19
f 99/175/20 100/177/20 104/183/20 103/182/20
f 103/182/21 104/183/21 102/180/21 101/179/21
f 101/179/22 102/180/22 98/173/22 97/170/22
f 99/176/23 103/182/23 101/179/23 97/171/23
f 104/184/24 100/178/24 98/174/24 102/181/24
f 105/185/19 106/188/19 108/193/19 107/191/19
f 107/191/20 108/193/20 112/199/20 111/198/20
f 111/198/21 112/199/21 110/196/21 109/195/21
f 109/195/22 110/196/22 106/189/22 105/186/22
f 107/192/23 111/198/23 109/195/23 105/187/23
f 112/200/24 108/194/24 106/190/24 110/197/24
l 65 73
l 66 74
l 67 75
l 68 76
l 69 77
l 70 78
l 71 79
l 72 80
